<?xml version="1.0" standalone="no"?>
 <!DOCTYPE svg PUBLIC "-//W3C//DTD SVG 1.1//EN" 
 "http://www.w3.org/Graphics/SVG/1.1/DTD/svg11.dtd"> 
<svg
  xmlns:svg="http://www.w3.org/2000/svg"
  xmlns="http://www.w3.org/2000/svg"
  xmlns:xlink="http://www.w3.org/1999/xlink"
  version="1.1"
  width="135.3820mm" height="86.3092mm" viewBox="0.0000 0.0000 135.3820 86.3092">
<title>SVG Image created as NEW-brd.svg date 2026/04/09 17:38:55 </title>
  <desc>Image generated by PCBNEW </desc>
<g style="fill:#000000; fill-opacity:1.0000;stroke:#000000; stroke-opacity:1.0000;
stroke-linecap:round; stroke-linejoin:round;"
 transform="translate(0 0) scale(1 1)">
<path style="fill:none; 
stroke:#000000; stroke-width:0.0500; stroke-opacity:1; 
stroke-linecap:round; stroke-linejoin:round;fill:none"
d="M 0.0250,4.5536
135.3750,4.5536
135.3750,84.5536
0.0250,84.5536
Z" /> 
</g>
<g style="fill:none; 
stroke:#000000; stroke-width:0.0500; stroke-opacity:1; 
stroke-linecap:round; stroke-linejoin:round;">
<circle cx="126.6750" cy="15.0836" r="1.7300" /> 
<circle cx="21.1650" cy="15.1136" r="1.7300" /> 
<circle cx="21.1650" cy="42.8236" r="1.7300" /> 
<path style="fill:none; 
stroke:#000000; stroke-width:0.0500; stroke-opacity:1; 
stroke-linecap:round; stroke-linejoin:round;fill:none"
d="M 29.6750,16.9536
113.6750,16.9536
113.6750,40.9536
29.6750,40.9536
Z" /> 
<circle cx="126.6750" cy="42.8236" r="1.7300" /> 
</g>
<g style="fill:#000000; fill-opacity:1.0000; stroke:none;">
<circle cx="102.3500" cy="8.5536" r="0.4000" /> 
</g>
<g style="fill:#000000; fill-opacity:1.0000; stroke:none;">
<circle cx="104.8900" cy="8.5536" r="0.4000" /> 
</g>
<g style="fill:#000000; fill-opacity:1.0000; stroke:none;">
<circle cx="107.4300" cy="8.5536" r="0.4000" /> 
</g>
<g style="fill:#000000; fill-opacity:1.0000; stroke:none;">
<circle cx="4.8750" cy="79.5536" r="0.5000" /> 
</g>
<g style="fill:#000000; fill-opacity:1.0000; stroke:none;">
<circle cx="122.8750" cy="45.5536" r="0.4000" /> 
</g>
<g style="fill:#000000; fill-opacity:1.0000; stroke:none;">
<circle cx="120.3350" cy="45.5536" r="0.4000" /> 
</g>
<g style="fill:#000000; fill-opacity:1.0000; stroke:none;">
<circle cx="117.7950" cy="45.5536" r="0.4000" /> 
</g>
<g style="fill:#000000; fill-opacity:1.0000; stroke:none;">
<circle cx="115.2550" cy="45.5536" r="0.4000" /> 
</g>
<g style="fill:#000000; fill-opacity:1.0000; stroke:none;">
<circle cx="112.7150" cy="45.5536" r="0.4000" /> 
</g>
<g style="fill:#000000; fill-opacity:1.0000; stroke:none;">
<circle cx="110.1750" cy="45.5536" r="0.4000" /> 
</g>
<g style="fill:#000000; fill-opacity:1.0000; stroke:none;">
<circle cx="107.6350" cy="45.5536" r="0.4000" /> 
</g>
<g style="fill:#000000; fill-opacity:1.0000; stroke:none;">
<circle cx="105.0950" cy="45.5536" r="0.4000" /> 
</g>
<g style="fill:#000000; fill-opacity:1.0000; stroke:none;">
<circle cx="102.5550" cy="45.5536" r="0.4000" /> 
</g>
<g style="fill:#000000; fill-opacity:1.0000; stroke:none;">
<circle cx="100.0150" cy="45.5536" r="0.4000" /> 
</g>
<g style="fill:#000000; fill-opacity:1.0000; stroke:none;">
<circle cx="97.4750" cy="45.5536" r="0.4000" /> 
</g>
<g style="fill:#000000; fill-opacity:1.0000; stroke:none;">
<circle cx="94.9350" cy="45.5536" r="0.4000" /> 
</g>
<g style="fill:#000000; fill-opacity:1.0000; stroke:none;">
<circle cx="92.3950" cy="45.5536" r="0.4000" /> 
</g>
<g style="fill:#000000; fill-opacity:1.0000; stroke:none;">
<circle cx="89.8550" cy="45.5536" r="0.4000" /> 
</g>
<g style="fill:#000000; fill-opacity:1.0000; stroke:none;">
<circle cx="87.3150" cy="45.5536" r="0.4000" /> 
</g>
<g style="fill:#000000; fill-opacity:1.0000; stroke:none;">
<circle cx="84.7750" cy="45.5536" r="0.4000" /> 
</g>
<g style="fill:#000000; fill-opacity:1.0000; stroke:none;">
<circle cx="122.8750" cy="12.4836" r="0.4000" /> 
</g>
<g style="fill:#000000; fill-opacity:1.0000; stroke:none;">
<circle cx="120.3350" cy="12.4836" r="0.4000" /> 
</g>
<g style="fill:#000000; fill-opacity:1.0000; stroke:none;">
<circle cx="117.7950" cy="12.4836" r="0.4000" /> 
</g>
<g style="fill:#000000; fill-opacity:1.0000; stroke:none;">
<circle cx="115.2550" cy="12.4836" r="0.4000" /> 
</g>
<g style="fill:#000000; fill-opacity:1.0000; stroke:none;">
<circle cx="112.7150" cy="12.4836" r="0.4000" /> 
</g>
<g style="fill:#000000; fill-opacity:1.0000; stroke:none;">
<circle cx="110.1750" cy="12.4836" r="0.4000" /> 
</g>
<g style="fill:#000000; fill-opacity:1.0000; stroke:none;">
<circle cx="107.6350" cy="12.4836" r="0.4000" /> 
</g>
<g style="fill:#000000; fill-opacity:1.0000; stroke:none;">
<circle cx="105.0950" cy="12.4836" r="0.4000" /> 
</g>
<g style="fill:#000000; fill-opacity:1.0000; stroke:none;">
<circle cx="102.5550" cy="12.4836" r="0.4000" /> 
</g>
<g style="fill:#000000; fill-opacity:1.0000; stroke:none;">
<circle cx="100.0150" cy="12.4836" r="0.4000" /> 
</g>
<g style="fill:#000000; fill-opacity:1.0000; stroke:none;">
<circle cx="97.4750" cy="12.4836" r="0.4000" /> 
</g>
<g style="fill:#000000; fill-opacity:1.0000; stroke:none;">
<circle cx="94.9350" cy="12.4836" r="0.4000" /> 
</g>
<g style="fill:#000000; fill-opacity:1.0000; stroke:none;">
<circle cx="92.3950" cy="12.4836" r="0.4000" /> 
</g>
<g style="fill:#000000; fill-opacity:1.0000; stroke:none;">
<circle cx="89.8550" cy="12.4836" r="0.4000" /> 
</g>
<g style="fill:#000000; fill-opacity:1.0000; stroke:none;">
<circle cx="87.3150" cy="12.4836" r="0.4000" /> 
</g>
<g style="fill:#000000; fill-opacity:1.0000; stroke:none;">
<circle cx="84.7750" cy="12.4836" r="0.4000" /> 
</g>
<g style="fill:#000000; fill-opacity:1.0000; stroke:none;">
<circle cx="26.8750" cy="77.5536" r="0.4000" /> 
</g>
<g style="fill:#000000; fill-opacity:1.0000; stroke:none;">
<circle cx="26.8750" cy="75.0536" r="0.4000" /> 
</g>
<g style="fill:#000000; fill-opacity:1.0000; stroke:none;">
<circle cx="126.8750" cy="65.7436" r="0.4000" /> 
</g>
<g style="fill:#000000; fill-opacity:1.0000; stroke:none;">
<circle cx="126.8750" cy="73.3636" r="0.4000" /> 
</g>
<g style="fill:#000000; fill-opacity:1.0000; stroke:none;">
<circle cx="81.8750" cy="79.5536" r="0.4000" /> 
</g>
<g style="fill:#000000; fill-opacity:1.0000; stroke:none;">
<circle cx="81.8750" cy="77.0136" r="0.4000" /> 
</g>
<g style="fill:#000000; fill-opacity:1.0000; stroke:none;">
<circle cx="81.8750" cy="74.4736" r="0.4000" /> 
</g>
<g style="fill:#000000; fill-opacity:1.0000; stroke:none;">
<circle cx="73.8750" cy="79.5536" r="0.4000" /> 
</g>
<g style="fill:#000000; fill-opacity:1.0000; stroke:none;">
<circle cx="73.8750" cy="77.0136" r="0.4000" /> 
</g>
<g style="fill:#000000; fill-opacity:1.0000; stroke:none;">
<circle cx="121.3750" cy="66.5536" r="0.4000" /> 
</g>
<g style="fill:#000000; fill-opacity:1.0000; stroke:none;">
<circle cx="118.8750" cy="66.5536" r="0.4000" /> 
</g>
<g style="fill:#000000; fill-opacity:1.0000; stroke:none;">
<circle cx="58.8750" cy="64.5536" r="0.3750" /> 
</g>
<g style="fill:#000000; fill-opacity:1.0000; stroke:none;">
<circle cx="57.6050" cy="64.5536" r="0.3750" /> 
</g>
<g style="fill:#000000; fill-opacity:1.0000; stroke:none;">
<circle cx="56.3350" cy="64.5536" r="0.3750" /> 
</g>
<g style="fill:#000000; fill-opacity:1.0000; stroke:none;">
<circle cx="36.2150" cy="76.0136" r="0.5500" /> 
</g>
<g style="fill:#000000; fill-opacity:1.0000; stroke:none;">
<circle cx="52.8750" cy="78.5536" r="0.5500" /> 
</g>
<g style="fill:#000000; fill-opacity:1.0000; stroke:none;">
<circle cx="52.8750" cy="76.0136" r="0.5500" /> 
</g>
<g style="fill:#000000; fill-opacity:1.0000; stroke:none;">
<circle cx="52.8750" cy="73.4736" r="0.5500" /> 
</g>
<g style="fill:#000000; fill-opacity:1.0000; stroke:none;">
<circle cx="66.8750" cy="59.5536" r="0.4000" /> 
</g>
<g style="fill:#000000; fill-opacity:1.0000; stroke:none;">
<circle cx="66.8750" cy="57.5536" r="0.4000" /> 
</g>
<g style="fill:#000000; fill-opacity:1.0000; stroke:none;">
<circle cx="66.8750" cy="55.5536" r="0.4000" /> 
</g>
<g style="fill:#000000; fill-opacity:1.0000; stroke:none;">
<circle cx="66.8750" cy="53.5536" r="0.4000" /> 
</g>
<g style="fill:#000000; fill-opacity:1.0000; stroke:none;">
<circle cx="66.8750" cy="51.5536" r="0.4000" /> 
</g>
<g style="fill:#000000; fill-opacity:1.0000; stroke:none;">
<circle cx="66.8750" cy="49.5536" r="0.4000" /> 
</g>
<g style="fill:#000000; fill-opacity:1.0000; stroke:none;">
<circle cx="66.8750" cy="47.5536" r="0.4000" /> 
</g>
<g style="fill:#000000; fill-opacity:1.0000; stroke:none;">
<circle cx="74.3350" cy="66.5536" r="0.4000" /> 
</g>
<g style="fill:#000000; fill-opacity:1.0000; stroke:none;">
<circle cx="76.8750" cy="66.5536" r="0.4000" /> 
</g>
<g style="fill:#000000; fill-opacity:1.0000; stroke:none;">
<circle cx="99.6850" cy="63.5536" r="0.4000" /> 
</g>
<g style="fill:#000000; fill-opacity:1.0000; stroke:none;">
<circle cx="92.0650" cy="63.5536" r="0.4000" /> 
</g>
<g style="fill:#000000; fill-opacity:1.0000; stroke:none;">
<circle cx="59.8750" cy="79.5536" r="0.4000" /> 
</g>
<g style="fill:#000000; fill-opacity:1.0000; stroke:none;">
<circle cx="59.8750" cy="71.9336" r="0.4000" /> 
</g>
<g style="fill:#000000; fill-opacity:1.0000; stroke:none;">
<circle cx="67.8750" cy="79.5536" r="0.4000" /> 
</g>
<g style="fill:#000000; fill-opacity:1.0000; stroke:none;">
<circle cx="67.8750" cy="71.9336" r="0.4000" /> 
</g>
<g style="fill:#000000; fill-opacity:1.0000; stroke:none;">
<circle cx="75.8750" cy="49.5536" r="0.4000" /> 
</g>
<g style="fill:#000000; fill-opacity:1.0000; stroke:none;">
<circle cx="75.8750" cy="51.5536" r="0.4000" /> 
</g>
<g style="fill:#000000; fill-opacity:1.0000; stroke:none;">
<circle cx="75.8750" cy="53.5536" r="0.4000" /> 
</g>
<g style="fill:#000000; fill-opacity:1.0000; stroke:none;">
<circle cx="75.8750" cy="55.5536" r="0.4000" /> 
</g>
<g style="fill:#000000; fill-opacity:1.0000; stroke:none;">
<circle cx="75.8750" cy="57.5536" r="0.4000" /> 
</g>
<g style="fill:#000000; fill-opacity:1.0000; stroke:none;">
<circle cx="13.4750" cy="73.8036" r="0.4000" /> 
</g>
<g style="fill:#000000; fill-opacity:1.0000; stroke:none;">
<circle cx="13.4750" cy="76.3436" r="0.4000" /> 
</g>
<g style="fill:#000000; fill-opacity:1.0000; stroke:none;">
<circle cx="13.4750" cy="78.8836" r="0.4000" /> 
</g>
<g style="fill:#000000; fill-opacity:1.0000; stroke:none;">
<circle cx="105.0650" cy="66.5536" r="0.4000" /> 
</g>
<g style="fill:#000000; fill-opacity:1.0000; stroke:none;">
<circle cx="112.6850" cy="66.5536" r="0.4000" /> 
</g>
<g style="fill:#000000; fill-opacity:1.0000; stroke:none;">
<circle cx="19.8750" cy="78.0536" r="0.4000" /> 
</g>
<g style="fill:#000000; fill-opacity:1.0000; stroke:none;">
<circle cx="19.8750" cy="80.5536" r="0.4000" /> 
</g>
<g style="fill:#000000; fill-opacity:1.0000; stroke:none;">
<circle cx="121.4643" cy="80.9779" r="0.4000" /> 
</g>
<g style="fill:#000000; fill-opacity:1.0000; stroke:none;">
<circle cx="121.4643" cy="58.1179" r="0.4000" /> 
</g>
<g style="fill:#000000; fill-opacity:1.0000; stroke:none;">
<circle cx="113.8443" cy="80.9779" r="0.4000" /> 
</g>
<g style="fill:#000000; fill-opacity:1.0000; stroke:none;">
<circle cx="103.6843" cy="80.9779" r="0.4000" /> 
</g>
<g style="fill:#000000; fill-opacity:1.0000; stroke:none;">
<circle cx="118.9243" cy="58.1179" r="0.4000" /> 
</g>
<g style="fill:#000000; fill-opacity:1.0000; stroke:none;">
<circle cx="116.3843" cy="80.9779" r="0.4000" /> 
</g>
<g style="fill:#000000; fill-opacity:1.0000; stroke:none;">
<circle cx="106.2243" cy="58.1179" r="0.4000" /> 
</g>
<g style="fill:#000000; fill-opacity:1.0000; stroke:none;">
<circle cx="103.6843" cy="58.1179" r="0.4000" /> 
</g>
<g style="fill:#000000; fill-opacity:1.0000; stroke:none;">
<circle cx="116.3843" cy="58.1179" r="0.4000" /> 
</g>
<g style="fill:#000000; fill-opacity:1.0000; stroke:none;">
<circle cx="113.8443" cy="58.1179" r="0.4000" /> 
</g>
<g style="fill:#000000; fill-opacity:1.0000; stroke:none;">
<circle cx="108.7643" cy="58.1179" r="0.4000" /> 
</g>
<g style="fill:#000000; fill-opacity:1.0000; stroke:none;">
<circle cx="111.3043" cy="58.1179" r="0.4000" /> 
</g>
<g style="fill:#000000; fill-opacity:1.0000; stroke:none;">
<circle cx="118.9243" cy="80.9779" r="0.4000" /> 
</g>
<g style="fill:#000000; fill-opacity:1.0000; stroke:none;">
<circle cx="108.7643" cy="80.9779" r="0.4000" /> 
</g>
<g style="fill:#000000; fill-opacity:1.0000; stroke:none;">
<circle cx="106.2243" cy="80.9779" r="0.4000" /> 
</g>
<g style="fill:#000000; fill-opacity:1.0000; stroke:none;">
<circle cx="111.3043" cy="80.9779" r="0.4000" /> 
<path style="fill:#000000; fill-opacity:1.0000; stroke:none;fill-rule:evenodd;"
d="M 103.3500,9.5536
101.3500,9.5536
101.3500,7.5536
103.3500,7.5536
Z" /> 
</g>
<g style="fill:none; 
stroke:#000000; stroke-width:1.3500; stroke-opacity:1; 
stroke-linecap:round; stroke-linejoin:round;">
<path d="M104.8900 8.9586
L104.8900 8.1486
" />
<path d="M107.4300 8.9586
L107.4300 8.1486
" />
<path style="fill:#000000; fill-opacity:1.0000; stroke:none;fill-rule:evenodd;"
d="M 4.0250,80.4036
4.0250,78.7036
5.7250,78.7036
5.7250,80.4036
Z" /> 
<path style="fill:#000000; fill-opacity:1.0000; stroke:none;fill-rule:evenodd;"
d="M 121.8750,44.5536
123.8750,44.5536
123.8750,46.5536
121.8750,46.5536
Z" /> 
</g>
<g style="fill:none; 
stroke:#000000; stroke-width:1.3500; stroke-opacity:1; 
stroke-linecap:round; stroke-linejoin:round;">
<path d="M120.3350 45.1486
L120.3350 45.9586
" />
<path d="M117.7950 45.1486
L117.7950 45.9586
" />
<path d="M115.2550 45.1486
L115.2550 45.9586
" />
<path d="M112.7150 45.1486
L112.7150 45.9586
" />
<path d="M110.1750 45.1486
L110.1750 45.9586
" />
<path d="M107.6350 45.1486
L107.6350 45.9586
" />
<path d="M105.0950 45.1486
L105.0950 45.9586
" />
<path d="M102.5550 45.1486
L102.5550 45.9586
" />
<path d="M100.0150 45.1486
L100.0150 45.9586
" />
<path d="M97.4750 45.1486
L97.4750 45.9586
" />
<path d="M94.9350 45.1486
L94.9350 45.9586
" />
<path d="M92.3950 45.1486
L92.3950 45.9586
" />
<path d="M89.8550 45.1486
L89.8550 45.9586
" />
<path d="M87.3150 45.1486
L87.3150 45.9586
" />
<path d="M84.7750 45.1486
L84.7750 45.9586
" />
<path style="fill:#000000; fill-opacity:1.0000; stroke:none;fill-rule:evenodd;"
d="M 121.8750,11.4836
123.8750,11.4836
123.8750,13.4836
121.8750,13.4836
Z" /> 
</g>
<g style="fill:none; 
stroke:#000000; stroke-width:1.3500; stroke-opacity:1; 
stroke-linecap:round; stroke-linejoin:round;">
<path d="M120.3350 12.0786
L120.3350 12.8886
" />
<path d="M117.7950 12.0786
L117.7950 12.8886
" />
<path d="M115.2550 12.0786
L115.2550 12.8886
" />
<path d="M112.7150 12.0786
L112.7150 12.8886
" />
<path d="M110.1750 12.0786
L110.1750 12.8886
" />
<path d="M107.6350 12.0786
L107.6350 12.8886
" />
<path d="M105.0950 12.0786
L105.0950 12.8886
" />
<path d="M102.5550 12.0786
L102.5550 12.8886
" />
<path d="M100.0150 12.0786
L100.0150 12.8886
" />
<path d="M97.4750 12.0786
L97.4750 12.8886
" />
<path d="M94.9350 12.0786
L94.9350 12.8886
" />
<path d="M92.3950 12.0786
L92.3950 12.8886
" />
<path d="M89.8550 12.0786
L89.8550 12.8886
" />
<path d="M87.3150 12.0786
L87.3150 12.8886
" />
<path d="M84.7750 12.0786
L84.7750 12.8886
" />
</g>
<g style="fill:#000000; fill-opacity:1.0000; stroke:none;">
<circle cx="26.8750" cy="77.5536" r="0.8000" /> 
</g>
<g style="fill:#000000; fill-opacity:1.0000; stroke:none;">
<circle cx="26.8750" cy="75.0536" r="0.8000" /> 
</g>
<g style="fill:none; 
stroke:#000000; stroke-width:1.3500; stroke-opacity:1; 
stroke-linecap:round; stroke-linejoin:round;">
<path d="M126.8750 65.3386
L126.8750 66.1486
" />
<path d="M126.8750 72.9586
L126.8750 73.7686
" />
<path style="fill:#000000; fill-opacity:1.0000; stroke:none;fill-rule:evenodd;"
d="M 82.8750,78.5536
82.8750,80.5536
80.8750,80.5536
80.8750,78.5536
Z" /> 
</g>
<g style="fill:none; 
stroke:#000000; stroke-width:1.3500; stroke-opacity:1; 
stroke-linecap:round; stroke-linejoin:round;">
<path d="M82.2800 77.0136
L81.4700 77.0136
" />
<path d="M82.2800 74.4736
L81.4700 74.4736
" />
<path style="fill:#000000; fill-opacity:1.0000; stroke:none;fill-rule:evenodd;"
d="M 74.9550,78.7036
74.9550,80.4036
72.7950,80.4036
72.7950,78.7036
Z" /> 
</g>
<g style="fill:none; 
stroke:#000000; stroke-width:1.7000; stroke-opacity:1; 
stroke-linecap:round; stroke-linejoin:round;">
<path d="M74.1050 77.0136
L73.6450 77.0136
" />
</g>
<g style="fill:none; 
stroke:#000000; stroke-width:1.3500; stroke-opacity:1; 
stroke-linecap:round; stroke-linejoin:round;">
<path d="M121.3750 66.9586
L121.3750 66.1486
" />
<path d="M118.8750 66.9586
L118.8750 66.1486
" />
<path style="fill:#000000; fill-opacity:1.0000; stroke:none;fill-rule:evenodd;"
d="M 59.4000,63.5536
59.4000,65.5536
58.3500,65.5536
58.3500,63.5536
Z" /> 
</g>
<g style="fill:none; 
stroke:#000000; stroke-width:1.0000; stroke-opacity:1; 
stroke-linecap:round; stroke-linejoin:round;">
<path d="M57.6050 65.0536
L57.6050 64.0536
" />
<path d="M56.3350 65.0536
L56.3350 64.0536
" />
</g>
<g style="fill:none; 
stroke:#000000; stroke-width:1.3500; stroke-opacity:1; 
stroke-linecap:round; stroke-linejoin:round;">
<path d="M35.8100 76.0136
L36.6200 76.0136
" />
<path style="fill:#000000; fill-opacity:1.0000; stroke:none;fill-rule:evenodd;"
d="M 53.8750,79.6336
51.8750,79.6336
51.8750,77.4736
53.8750,77.4736
Z" /> 
</g>
<g style="fill:none; 
stroke:#000000; stroke-width:1.3500; stroke-opacity:1; 
stroke-linecap:round; stroke-linejoin:round;">
<path d="M52.4700 76.0136
L53.2800 76.0136
" />
<path d="M52.4700 73.4736
L53.2800 73.4736
" />
<path style="fill:#000000; fill-opacity:1.0000; stroke:none;fill-rule:evenodd;"
d="M 67.9550,58.8786
67.9550,60.2286
65.7950,60.2286
65.7950,58.8786
Z" /> 
</g>
<g style="fill:none; 
stroke:#000000; stroke-width:1.3500; stroke-opacity:1; 
stroke-linecap:round; stroke-linejoin:round;">
<path d="M67.2800 57.5536
L66.4700 57.5536
" />
<path d="M67.2800 55.5536
L66.4700 55.5536
" />
<path d="M67.2800 53.5536
L66.4700 53.5536
" />
<path d="M67.2800 51.5536
L66.4700 51.5536
" />
<path d="M67.2800 49.5536
L66.4700 49.5536
" />
<path d="M67.2800 47.5536
L66.4700 47.5536
" />
<path style="fill:#000000; fill-opacity:1.0000; stroke:none;fill-rule:evenodd;"
d="M 75.1850,67.6336
73.4850,67.6336
73.4850,65.4736
75.1850,65.4736
Z" /> 
</g>
<g style="fill:none; 
stroke:#000000; stroke-width:1.7000; stroke-opacity:1; 
stroke-linecap:round; stroke-linejoin:round;">
<path d="M76.8750 66.7836
L76.8750 66.3236
" />
</g>
<g style="fill:none; 
stroke:#000000; stroke-width:1.3500; stroke-opacity:1; 
stroke-linecap:round; stroke-linejoin:round;">
<path d="M100.0900 63.5536
L99.2800 63.5536
" />
<path d="M92.4700 63.5536
L91.6600 63.5536
" />
<path d="M59.8750 79.9586
L59.8750 79.1486
" />
<path d="M59.8750 72.3386
L59.8750 71.5286
" />
<path d="M67.8750 79.9586
L67.8750 79.1486
" />
<path d="M67.8750 72.3386
L67.8750 71.5286
" />
<path style="fill:#000000; fill-opacity:1.0000; stroke:none;fill-rule:evenodd;"
d="M 74.7950,50.2286
74.7950,48.8786
76.9550,48.8786
76.9550,50.2286
Z" /> 
</g>
<g style="fill:none; 
stroke:#000000; stroke-width:1.3500; stroke-opacity:1; 
stroke-linecap:round; stroke-linejoin:round;">
<path d="M75.4700 51.5536
L76.2800 51.5536
" />
<path d="M75.4700 53.5536
L76.2800 53.5536
" />
<path d="M75.4700 55.5536
L76.2800 55.5536
" />
<path d="M75.4700 57.5536
L76.2800 57.5536
" />
<path style="fill:#000000; fill-opacity:1.0000; stroke:none;fill-rule:evenodd;"
d="M 12.4750,74.8036
12.4750,72.8036
14.4750,72.8036
14.4750,74.8036
Z" /> 
</g>
<g style="fill:none; 
stroke:#000000; stroke-width:1.3500; stroke-opacity:1; 
stroke-linecap:round; stroke-linejoin:round;">
<path d="M13.0700 76.3436
L13.8800 76.3436
" />
<path d="M13.0700 78.8836
L13.8800 78.8836
" />
<path d="M104.6600 66.5536
L105.4700 66.5536
" />
<path d="M112.2800 66.5536
L113.0900 66.5536
" />
<path d="M20.2800 78.0536
L19.4700 78.0536
" />
<path d="M20.2800 80.5536
L19.4700 80.5536
" />
<path d="M121.4643 81.3829
L121.4643 80.5729
" />
<path d="M121.4643 58.5229
L121.4643 57.7129
" />
<path d="M113.8443 81.3829
L113.8443 80.5729
" />
<path d="M103.6843 81.3829
L103.6843 80.5729
" />
<path d="M118.9243 58.5229
L118.9243 57.7129
" />
<path d="M116.3843 81.3829
L116.3843 80.5729
" />
<path d="M106.2243 58.5229
L106.2243 57.7129
" />
<path d="M103.6843 58.5229
L103.6843 57.7129
" />
<path d="M116.3843 58.5229
L116.3843 57.7129
" />
<path d="M113.8443 58.5229
L113.8443 57.7129
" />
<path d="M108.7643 58.5229
L108.7643 57.7129
" />
<path d="M111.3043 58.5229
L111.3043 57.7129
" />
<path d="M118.9243 81.3829
L118.9243 80.5729
" />
<path d="M108.7643 81.3829
L108.7643 80.5729
" />
<path d="M106.2243 81.3829
L106.2243 80.5729
" />
<path d="M111.3043 81.3829
L111.3043 80.5729
" />
</g>
<g style="fill:none; 
stroke:#000000; stroke-width:0.7000; stroke-opacity:1; 
stroke-linecap:round; stroke-linejoin:round;">
<path d="M9.8750 73.8036
L13.4750 73.8036
" />
<path d="M1.8750 82.5536
L9.8750 82.5536
" />
<path d="M9.8750 82.5536
L9.8750 73.8036
" />
<path d="M1.8750 10.7036
L1.8750 82.5536
" />
<path d="M89.8550 10.7036
L1.8750 10.7036
" />
<path d="M89.8550 12.4836
L89.8550 10.7036
" />
<path d="M107.4300 8.5536
L120.3350 8.5536
" />
<path d="M120.3350 8.5536
L120.3350 12.4836
" />
<path d="M104.8900 12.2786
L105.0950 12.4836
" />
<path d="M104.8900 8.5536
L104.8900 12.2786
" />
<path d="M102.5550 8.7586
L102.3500 8.5536
" />
<path d="M102.5550 12.4836
L102.5550 8.7586
" />
<path d="M102.5550 42.5536
L102.5550 45.5536
" />
<path d="M26.8750 42.5536
L102.5550 42.5536
" />
<path d="M28.8740 15.5536
L26.8750 17.5525
" />
<path d="M96.2500 6.1786
L96.2500 15.1786
" />
<path d="M96.8750 5.5536
L96.2500 6.1786
" />
<path d="M95.8750 15.5536
L28.8740 15.5536
" />
<path d="M96.2500 15.1786
L95.8750 15.5536
" />
<path d="M133.8750 5.5536
L96.8750 5.5536
" />
<path d="M133.8750 65.7436
L133.8750 5.5536
" />
<path d="M26.8750 17.5525
L26.8750 42.5536
" />
<path d="M126.8750 65.7436
L133.8750 65.7436
" />
<path d="M11.8421 76.5865
L12.0850 76.3436
" />
<path d="M11.8421 81.7972
L11.8421 76.5865
" />
<path d="M23.6245 81.7972
L11.8421 81.7972
" />
<path d="M12.0850 76.3436
L13.4750 76.3436
" />
<path d="M23.6245 79.7786
L23.6245 81.7972
" />
<path d="M15.8750 58.5379
L4.8750 58.5379
" />
<path d="M4.8750 58.5379
L4.8750 79.5536
" />
<path d="M28.9450 12.4836
L84.7750 12.4836
" />
<path d="M15.8750 25.5536
L28.9450 12.4836
" />
<path d="M28.2661 58.5379
L15.8750 58.5379
" />
<path d="M15.8750 58.5379
L15.8750 25.5536
" />
<path d="M106.4400 65.1786
L105.0650 65.1786
" />
<path d="M112.5743 59.0443
L106.4400 65.1786
" />
<path d="M105.0650 65.1786
L105.0650 66.5536
" />
<path d="M112.5743 56.8543
L112.5743 59.0443
" />
<path d="M124.4530 47.5536
L121.8750 47.5536
" />
<path d="M121.8750 47.5536
L112.5743 56.8543
" />
<path d="M124.4291 44.1077
L124.4487 44.1471
" />
<path d="M105.3150 42.9620
L123.2834 42.9620
" />
<path d="M123.2834 42.9620
L124.4291 44.1077
" />
<path d="M105.0950 43.1820
L105.3150 42.9620
" />
<path d="M124.4487 44.1471
L124.4530 44.1515
" />
<path d="M124.4530 44.1515
L124.4530 47.5536
" />
<path d="M105.0950 45.5536
L105.0950 43.1820
" />
<path d="M81.7650 52.5536
L78.7650 55.5536
" />
<path d="M110.0350 52.5536
L81.7650 52.5536
" />
<path d="M115.2550 47.3336
L110.0350 52.5536
" />
<path d="M115.2550 45.5536
L115.2550 47.3336
" />
<path d="M78.7650 55.5536
L75.8750 55.5536
" />
<path d="M107.6350 43.8854
L107.6350 45.5536
" />
<path d="M119.0635 43.9088
L119.0401 43.8854
" />
<path d="M104.9550 55.5536
L111.8767 55.5536
" />
<path d="M119.0635 48.3668
L119.0635 43.9088
" />
<path d="M119.0401 43.8854
L107.6350 43.8854
" />
<path d="M101.4650 63.5536
L104.9550 60.0636
" />
<path d="M104.9550 60.0636
L104.9550 55.5536
" />
<path d="M99.6850 63.5536
L101.4650 63.5536
" />
<path d="M111.8767 55.5536
L119.0635 48.3668
" />
<path d="M110.5750 54.5536
L97.3750 54.5536
" />
<path d="M117.7950 47.3336
L110.5750 54.5536
" />
<path d="M97.3750 54.5536
L94.3750 57.5536
" />
<path d="M117.7950 45.5536
L117.7950 47.3336
" />
<path d="M94.3750 57.5536
L75.8750 57.5536
" />
<path d="M60.9277 58.5379
L28.2661 58.5379
" />
<path d="M93.8750 61.9533
L64.3431 61.9533
" />
<path d="M93.8750 64.7393
L93.8750 61.9533
" />
<path d="M93.7112 64.9031
L93.8750 64.7393
" />
<path d="M65.2400 64.9031
L93.7112 64.9031
" />
<path d="M80.0316 75.1702
L65.2400 75.1702
" />
<path d="M64.3431 61.9533
L60.9277 58.5379
" />
<path d="M65.2400 75.1702
L65.2400 64.9031
" />
<path d="M81.8750 77.0136
L80.0316 75.1702
" />
<path d="M81.8750 68.5536
L81.8750 74.4736
" />
<path d="M76.8750 68.5536
L81.8750 68.5536
" />
<path d="M76.8750 66.5536
L76.8750 68.5536
" />
<path d="M113.8750 68.5536
L80.8750 68.5536
" />
<path d="M117.6542 64.7744
L113.8750 68.5536
" />
<path d="M129.8750 37.7627
L129.8750 44.5536
" />
<path d="M129.8750 44.5536
L117.6542 56.7744
" />
<path d="M117.7950 25.6827
L129.8750 37.7627
" />
<path d="M117.6542 56.7744
L117.6542 64.7744
" />
<path d="M117.7950 12.4836
L117.7950 25.6827
" />
<path d="M94.7822 73.5536
L87.2173 81.1185
" />
<path d="M115.8750 73.5536
L94.7822 73.5536
" />
<path d="M121.3750 68.0536
L115.8750 73.5536
" />
<path d="M73.8899 81.1185
L73.8750 81.1036
" />
<path d="M121.3750 66.5536
L121.3750 68.0536
" />
<path d="M87.2173 81.1185
L73.8899 81.1185
" />
<path d="M120.3350 16.6796
L120.3350 12.4836
" />
<path d="M131.8750 28.2196
L120.3350 16.6796
" />
<path d="M131.8750 55.5536
L131.8750 28.2196
" />
<path d="M120.6818 55.5536
L131.8750 55.5536
" />
<path d="M118.9243 58.1179
L118.9243 57.3111
" />
<path d="M118.9243 57.3111
L120.6818 55.5536
" />
<path d="M118.9243 66.5043
L118.9243 58.1179
" />
<path d="M118.8750 66.5536
L118.9243 66.5043
" />
<path d="M121.4643 58.1179
L121.3750 58.2072
" />
<path d="M121.3750 58.2072
L121.3750 66.5536
" />
<path d="M114.8750 70.5536
L118.8750 66.5536
" />
<path d="M92.5750 70.5536
L114.8750 70.5536
" />
<path d="M83.5750 79.5536
L92.5750 70.5536
" />
<path d="M81.8750 79.5536
L83.5750 79.5536
" />
<path d="M118.9243 73.3636
L126.8750 73.3636
" />
<path d="M118.9243 80.9779
L118.9243 73.3636
" />
<path d="M59.8750 65.5536
L58.8750 64.5536
" />
<path d="M59.8750 71.9336
L59.8750 65.5536
" />
<path d="M67.8750 71.9336
L74.3350 71.9336
" />
<path d="M74.3350 71.9336
L74.3350 66.5536
" />
<path d="M59.8750 72.5536
L59.8750 71.9336
" />
<path d="M56.4150 76.0136
L59.8750 72.5536
" />
<path d="M52.8750 76.0136
L56.4150 76.0136
" />
<path d="M32.8750 78.5536
L46.8750 78.5536
" />
<path d="M29.4745 75.1531
L32.8750 78.5536
" />
<path d="M48.1483 77.2803
L51.0950 77.2803
" />
<path d="M25.4761 75.0537
L25.5755 75.1531
" />
<path d="M25.5755 75.1531
L29.4745 75.1531
" />
<path d="M46.8750 78.5536
L48.1483 77.2803
" />
<path d="M16.8750 80.5536
L16.8750 78.5536
" />
<path d="M19.8750 80.5536
L16.8750 80.5536
" />
<path d="M13.8050 78.5536
L13.4750 78.8836
" />
<path d="M16.8750 78.5536
L13.8050 78.5536
" />
<path d="M16.8750 75.0537
L16.8750 78.5536
" />
<path d="M25.4761 75.0537
L16.8750 75.0537
" />
<path d="M23.8750 80.2389
L23.6245 79.9884
" />
<path d="M57.8147 80.2389
L23.8750 80.2389
" />
<path d="M58.5000 79.5536
L57.8147 80.2389
" />
<path d="M59.8750 79.5536
L58.5000 79.5536
" />
<path d="M23.6245 79.9884
L23.6245 79.7786
" />
<path d="M113.8443 64.0193
L112.6850 65.1786
" />
<path d="M113.8443 58.1179
L113.8443 64.0193
" />
<path d="M112.6850 66.5536
L112.6850 65.1786
" />
<path d="M57.6050 64.5536
L57.6050 62.8536
" />
<path d="M92.0650 63.5536
L90.2850 63.5536
" />
<path d="M89.5865 62.8551
L90.2850 63.5536
" />
<path d="M57.6065 62.8551
L89.5865 62.8551
" />
<path d="M57.6050 62.8536
L57.6065 62.8551
" />
<path d="M66.8750 51.5536
L75.8750 51.5536
" />
<path d="M110.1750 45.5536
L110.1750 47.3336
" />
<path d="M75.8750 51.5536
L77.6550 51.5536
" />
<path d="M81.8750 47.3336
L77.6550 51.5536
" />
<path d="M110.1750 47.3336
L81.8750 47.3336
" />
<path d="M66.8750 53.5536
L75.8750 53.5536
" />
<path d="M112.7150 45.5536
L112.7150 47.3336
" />
<path d="M75.8750 53.5536
L77.6550 53.5536
" />
<path d="M80.1343 51.0743
L77.6550 53.5536
" />
<path d="M108.9743 51.0743
L80.1343 51.0743
" />
<path d="M112.7150 47.3336
L108.9743 51.0743
" />
<path d="M66.8750 55.5536
L75.8750 55.5536
" />
<path d="M66.8750 57.5536
L75.8750 57.5536
" />
<path d="M19.8750 78.0536
L23.6245 78.0536
" />
<path d="M26.3750 78.0536
L26.8750 77.5536
" />
<path d="M23.6245 78.0536
L26.3750 78.0536
" />
<path d="M23.6245 78.0536
L23.6245 79.7786
" />
<path d="M73.8750 79.5536
L73.8750 81.1036
" />
<path d="M73.7137 81.2649
L73.8750 81.1036
" />
<path d="M62.9613 81.2649
L73.7137 81.2649
" />
<path d="M61.2500 79.5536
L62.9613 81.2649
" />
<path d="M59.8750 79.5536
L61.2500 79.5536
" />
<path d="M52.8750 73.4736
L51.0950 73.4736
" />
<path d="M52.8132 78.5536
L51.1750 78.5536
" />
<path d="M52.8132 78.5536
L52.8750 78.5536
" />
<path d="M64.8008 77.8544
L66.5000 79.5536
" />
<path d="M55.2742 77.8544
L64.8008 77.8544
" />
<path d="M54.5750 78.5536
L55.2742 77.8544
" />
<path d="M52.8750 78.5536
L54.5750 78.5536
" />
<path d="M67.8750 79.5536
L66.5000 79.5536
" />
<path d="M55.1350 72.9936
L54.6550 73.4736
" />
<path d="M55.1350 64.5536
L55.1350 72.9936
" />
<path d="M56.3350 64.5536
L55.1350 64.5536
" />
<path d="M52.8750 73.4736
L54.6550 73.4736
" />
<path d="M71.7900 77.0136
L73.8750 77.0136
" />
<path d="M69.2500 79.5536
L71.7900 77.0136
" />
<path d="M67.8750 79.5536
L69.2500 79.5536
" />
<path d="M51.0950 73.4736
L51.0950 77.2803
" />
<path d="M51.0950 78.4736
L51.1750 78.5536
" />
<path d="M51.0950 77.2803
L51.0950 78.4736
" />
<path d="M25.4761 75.0536
L25.4761 75.0537
" />
<path d="M26.8750 75.0536
L25.4761 75.0536
" />
<path d="M77.6350 77.0136
L80.1750 79.5536
" />
<path d="M73.8750 77.0136
L77.6350 77.0136
" />
<path d="M81.3555 79.5536
L80.1750 79.5536
" />
<path d="M81.3555 79.5536
L81.8750 79.5536
" />
</g>
<g style="fill:#FFFFFF; fill-opacity:1.0000; stroke:none;">
<circle cx="102.3500" cy="8.5536" r="0.4000" /> 
</g>
<g style="fill:#FFFFFF; fill-opacity:1.0000; stroke:none;">
<circle cx="104.8900" cy="8.5536" r="0.4000" /> 
</g>
<g style="fill:#FFFFFF; fill-opacity:1.0000; stroke:none;">
<circle cx="107.4300" cy="8.5536" r="0.4000" /> 
</g>
<g style="fill:#FFFFFF; fill-opacity:1.0000; stroke:none;">
<circle cx="4.8750" cy="79.5536" r="0.5000" /> 
</g>
<g style="fill:#FFFFFF; fill-opacity:1.0000; stroke:none;">
<circle cx="122.8750" cy="45.5536" r="0.4000" /> 
</g>
<g style="fill:#FFFFFF; fill-opacity:1.0000; stroke:none;">
<circle cx="120.3350" cy="45.5536" r="0.4000" /> 
</g>
<g style="fill:#FFFFFF; fill-opacity:1.0000; stroke:none;">
<circle cx="117.7950" cy="45.5536" r="0.4000" /> 
</g>
<g style="fill:#FFFFFF; fill-opacity:1.0000; stroke:none;">
<circle cx="115.2550" cy="45.5536" r="0.4000" /> 
</g>
<g style="fill:#FFFFFF; fill-opacity:1.0000; stroke:none;">
<circle cx="112.7150" cy="45.5536" r="0.4000" /> 
</g>
<g style="fill:#FFFFFF; fill-opacity:1.0000; stroke:none;">
<circle cx="110.1750" cy="45.5536" r="0.4000" /> 
</g>
<g style="fill:#FFFFFF; fill-opacity:1.0000; stroke:none;">
<circle cx="107.6350" cy="45.5536" r="0.4000" /> 
</g>
<g style="fill:#FFFFFF; fill-opacity:1.0000; stroke:none;">
<circle cx="105.0950" cy="45.5536" r="0.4000" /> 
</g>
<g style="fill:#FFFFFF; fill-opacity:1.0000; stroke:none;">
<circle cx="102.5550" cy="45.5536" r="0.4000" /> 
</g>
<g style="fill:#FFFFFF; fill-opacity:1.0000; stroke:none;">
<circle cx="100.0150" cy="45.5536" r="0.4000" /> 
</g>
<g style="fill:#FFFFFF; fill-opacity:1.0000; stroke:none;">
<circle cx="97.4750" cy="45.5536" r="0.4000" /> 
</g>
<g style="fill:#FFFFFF; fill-opacity:1.0000; stroke:none;">
<circle cx="94.9350" cy="45.5536" r="0.4000" /> 
</g>
<g style="fill:#FFFFFF; fill-opacity:1.0000; stroke:none;">
<circle cx="92.3950" cy="45.5536" r="0.4000" /> 
</g>
<g style="fill:#FFFFFF; fill-opacity:1.0000; stroke:none;">
<circle cx="89.8550" cy="45.5536" r="0.4000" /> 
</g>
<g style="fill:#FFFFFF; fill-opacity:1.0000; stroke:none;">
<circle cx="87.3150" cy="45.5536" r="0.4000" /> 
</g>
<g style="fill:#FFFFFF; fill-opacity:1.0000; stroke:none;">
<circle cx="84.7750" cy="45.5536" r="0.4000" /> 
</g>
<g style="fill:#FFFFFF; fill-opacity:1.0000; stroke:none;">
<circle cx="122.8750" cy="12.4836" r="0.4000" /> 
</g>
<g style="fill:#FFFFFF; fill-opacity:1.0000; stroke:none;">
<circle cx="120.3350" cy="12.4836" r="0.4000" /> 
</g>
<g style="fill:#FFFFFF; fill-opacity:1.0000; stroke:none;">
<circle cx="117.7950" cy="12.4836" r="0.4000" /> 
</g>
<g style="fill:#FFFFFF; fill-opacity:1.0000; stroke:none;">
<circle cx="115.2550" cy="12.4836" r="0.4000" /> 
</g>
<g style="fill:#FFFFFF; fill-opacity:1.0000; stroke:none;">
<circle cx="112.7150" cy="12.4836" r="0.4000" /> 
</g>
<g style="fill:#FFFFFF; fill-opacity:1.0000; stroke:none;">
<circle cx="110.1750" cy="12.4836" r="0.4000" /> 
</g>
<g style="fill:#FFFFFF; fill-opacity:1.0000; stroke:none;">
<circle cx="107.6350" cy="12.4836" r="0.4000" /> 
</g>
<g style="fill:#FFFFFF; fill-opacity:1.0000; stroke:none;">
<circle cx="105.0950" cy="12.4836" r="0.4000" /> 
</g>
<g style="fill:#FFFFFF; fill-opacity:1.0000; stroke:none;">
<circle cx="102.5550" cy="12.4836" r="0.4000" /> 
</g>
<g style="fill:#FFFFFF; fill-opacity:1.0000; stroke:none;">
<circle cx="100.0150" cy="12.4836" r="0.4000" /> 
</g>
<g style="fill:#FFFFFF; fill-opacity:1.0000; stroke:none;">
<circle cx="97.4750" cy="12.4836" r="0.4000" /> 
</g>
<g style="fill:#FFFFFF; fill-opacity:1.0000; stroke:none;">
<circle cx="94.9350" cy="12.4836" r="0.4000" /> 
</g>
<g style="fill:#FFFFFF; fill-opacity:1.0000; stroke:none;">
<circle cx="92.3950" cy="12.4836" r="0.4000" /> 
</g>
<g style="fill:#FFFFFF; fill-opacity:1.0000; stroke:none;">
<circle cx="89.8550" cy="12.4836" r="0.4000" /> 
</g>
<g style="fill:#FFFFFF; fill-opacity:1.0000; stroke:none;">
<circle cx="87.3150" cy="12.4836" r="0.4000" /> 
</g>
<g style="fill:#FFFFFF; fill-opacity:1.0000; stroke:none;">
<circle cx="84.7750" cy="12.4836" r="0.4000" /> 
</g>
<g style="fill:#FFFFFF; fill-opacity:1.0000; stroke:none;">
<circle cx="26.8750" cy="77.5536" r="0.4000" /> 
</g>
<g style="fill:#FFFFFF; fill-opacity:1.0000; stroke:none;">
<circle cx="26.8750" cy="75.0536" r="0.4000" /> 
</g>
<g style="fill:#FFFFFF; fill-opacity:1.0000; stroke:none;">
<circle cx="126.8750" cy="65.7436" r="0.4000" /> 
</g>
<g style="fill:#FFFFFF; fill-opacity:1.0000; stroke:none;">
<circle cx="126.8750" cy="73.3636" r="0.4000" /> 
</g>
<g style="fill:#FFFFFF; fill-opacity:1.0000; stroke:none;">
<circle cx="81.8750" cy="79.5536" r="0.4000" /> 
</g>
<g style="fill:#FFFFFF; fill-opacity:1.0000; stroke:none;">
<circle cx="81.8750" cy="77.0136" r="0.4000" /> 
</g>
<g style="fill:#FFFFFF; fill-opacity:1.0000; stroke:none;">
<circle cx="81.8750" cy="74.4736" r="0.4000" /> 
</g>
<g style="fill:#FFFFFF; fill-opacity:1.0000; stroke:none;">
<circle cx="73.8750" cy="79.5536" r="0.4000" /> 
</g>
<g style="fill:#FFFFFF; fill-opacity:1.0000; stroke:none;">
<circle cx="73.8750" cy="77.0136" r="0.4000" /> 
</g>
<g style="fill:#FFFFFF; fill-opacity:1.0000; stroke:none;">
<circle cx="121.3750" cy="66.5536" r="0.4000" /> 
</g>
<g style="fill:#FFFFFF; fill-opacity:1.0000; stroke:none;">
<circle cx="118.8750" cy="66.5536" r="0.4000" /> 
</g>
<g style="fill:#FFFFFF; fill-opacity:1.0000; stroke:none;">
<circle cx="58.8750" cy="64.5536" r="0.3750" /> 
</g>
<g style="fill:#FFFFFF; fill-opacity:1.0000; stroke:none;">
<circle cx="57.6050" cy="64.5536" r="0.3750" /> 
</g>
<g style="fill:#FFFFFF; fill-opacity:1.0000; stroke:none;">
<circle cx="56.3350" cy="64.5536" r="0.3750" /> 
</g>
<g style="fill:#FFFFFF; fill-opacity:1.0000; stroke:none;">
<circle cx="36.2150" cy="76.0136" r="0.5500" /> 
</g>
<g style="fill:#FFFFFF; fill-opacity:1.0000; stroke:none;">
<circle cx="52.8750" cy="78.5536" r="0.5500" /> 
</g>
<g style="fill:#FFFFFF; fill-opacity:1.0000; stroke:none;">
<circle cx="52.8750" cy="76.0136" r="0.5500" /> 
</g>
<g style="fill:#FFFFFF; fill-opacity:1.0000; stroke:none;">
<circle cx="52.8750" cy="73.4736" r="0.5500" /> 
</g>
<g style="fill:#FFFFFF; fill-opacity:1.0000; stroke:none;">
<circle cx="66.8750" cy="59.5536" r="0.4000" /> 
</g>
<g style="fill:#FFFFFF; fill-opacity:1.0000; stroke:none;">
<circle cx="66.8750" cy="57.5536" r="0.4000" /> 
</g>
<g style="fill:#FFFFFF; fill-opacity:1.0000; stroke:none;">
<circle cx="66.8750" cy="55.5536" r="0.4000" /> 
</g>
<g style="fill:#FFFFFF; fill-opacity:1.0000; stroke:none;">
<circle cx="66.8750" cy="53.5536" r="0.4000" /> 
</g>
<g style="fill:#FFFFFF; fill-opacity:1.0000; stroke:none;">
<circle cx="66.8750" cy="51.5536" r="0.4000" /> 
</g>
<g style="fill:#FFFFFF; fill-opacity:1.0000; stroke:none;">
<circle cx="66.8750" cy="49.5536" r="0.4000" /> 
</g>
<g style="fill:#FFFFFF; fill-opacity:1.0000; stroke:none;">
<circle cx="66.8750" cy="47.5536" r="0.4000" /> 
</g>
<g style="fill:#FFFFFF; fill-opacity:1.0000; stroke:none;">
<circle cx="74.3350" cy="66.5536" r="0.4000" /> 
</g>
<g style="fill:#FFFFFF; fill-opacity:1.0000; stroke:none;">
<circle cx="76.8750" cy="66.5536" r="0.4000" /> 
</g>
<g style="fill:#FFFFFF; fill-opacity:1.0000; stroke:none;">
<circle cx="99.6850" cy="63.5536" r="0.4000" /> 
</g>
<g style="fill:#FFFFFF; fill-opacity:1.0000; stroke:none;">
<circle cx="92.0650" cy="63.5536" r="0.4000" /> 
</g>
<g style="fill:#FFFFFF; fill-opacity:1.0000; stroke:none;">
<circle cx="59.8750" cy="79.5536" r="0.4000" /> 
</g>
<g style="fill:#FFFFFF; fill-opacity:1.0000; stroke:none;">
<circle cx="59.8750" cy="71.9336" r="0.4000" /> 
</g>
<g style="fill:#FFFFFF; fill-opacity:1.0000; stroke:none;">
<circle cx="67.8750" cy="79.5536" r="0.4000" /> 
</g>
<g style="fill:#FFFFFF; fill-opacity:1.0000; stroke:none;">
<circle cx="67.8750" cy="71.9336" r="0.4000" /> 
</g>
<g style="fill:#FFFFFF; fill-opacity:1.0000; stroke:none;">
<circle cx="75.8750" cy="49.5536" r="0.4000" /> 
</g>
<g style="fill:#FFFFFF; fill-opacity:1.0000; stroke:none;">
<circle cx="75.8750" cy="51.5536" r="0.4000" /> 
</g>
<g style="fill:#FFFFFF; fill-opacity:1.0000; stroke:none;">
<circle cx="75.8750" cy="53.5536" r="0.4000" /> 
</g>
<g style="fill:#FFFFFF; fill-opacity:1.0000; stroke:none;">
<circle cx="75.8750" cy="55.5536" r="0.4000" /> 
</g>
<g style="fill:#FFFFFF; fill-opacity:1.0000; stroke:none;">
<circle cx="75.8750" cy="57.5536" r="0.4000" /> 
</g>
<g style="fill:#FFFFFF; fill-opacity:1.0000; stroke:none;">
<circle cx="13.4750" cy="73.8036" r="0.4000" /> 
</g>
<g style="fill:#FFFFFF; fill-opacity:1.0000; stroke:none;">
<circle cx="13.4750" cy="76.3436" r="0.4000" /> 
</g>
<g style="fill:#FFFFFF; fill-opacity:1.0000; stroke:none;">
<circle cx="13.4750" cy="78.8836" r="0.4000" /> 
</g>
<g style="fill:#FFFFFF; fill-opacity:1.0000; stroke:none;">
<circle cx="105.0650" cy="66.5536" r="0.4000" /> 
</g>
<g style="fill:#FFFFFF; fill-opacity:1.0000; stroke:none;">
<circle cx="112.6850" cy="66.5536" r="0.4000" /> 
</g>
<g style="fill:#FFFFFF; fill-opacity:1.0000; stroke:none;">
<circle cx="19.8750" cy="78.0536" r="0.4000" /> 
</g>
<g style="fill:#FFFFFF; fill-opacity:1.0000; stroke:none;">
<circle cx="19.8750" cy="80.5536" r="0.4000" /> 
</g>
<g style="fill:#FFFFFF; fill-opacity:1.0000; stroke:none;">
<circle cx="121.4643" cy="80.9779" r="0.4000" /> 
</g>
<g style="fill:#FFFFFF; fill-opacity:1.0000; stroke:none;">
<circle cx="121.4643" cy="58.1179" r="0.4000" /> 
</g>
<g style="fill:#FFFFFF; fill-opacity:1.0000; stroke:none;">
<circle cx="113.8443" cy="80.9779" r="0.4000" /> 
</g>
<g style="fill:#FFFFFF; fill-opacity:1.0000; stroke:none;">
<circle cx="103.6843" cy="80.9779" r="0.4000" /> 
</g>
<g style="fill:#FFFFFF; fill-opacity:1.0000; stroke:none;">
<circle cx="118.9243" cy="58.1179" r="0.4000" /> 
</g>
<g style="fill:#FFFFFF; fill-opacity:1.0000; stroke:none;">
<circle cx="116.3843" cy="80.9779" r="0.4000" /> 
</g>
<g style="fill:#FFFFFF; fill-opacity:1.0000; stroke:none;">
<circle cx="106.2243" cy="58.1179" r="0.4000" /> 
</g>
<g style="fill:#FFFFFF; fill-opacity:1.0000; stroke:none;">
<circle cx="103.6843" cy="58.1179" r="0.4000" /> 
</g>
<g style="fill:#FFFFFF; fill-opacity:1.0000; stroke:none;">
<circle cx="116.3843" cy="58.1179" r="0.4000" /> 
</g>
<g style="fill:#FFFFFF; fill-opacity:1.0000; stroke:none;">
<circle cx="113.8443" cy="58.1179" r="0.4000" /> 
</g>
<g style="fill:#FFFFFF; fill-opacity:1.0000; stroke:none;">
<circle cx="108.7643" cy="58.1179" r="0.4000" /> 
</g>
<g style="fill:#FFFFFF; fill-opacity:1.0000; stroke:none;">
<circle cx="111.3043" cy="58.1179" r="0.4000" /> 
</g>
<g style="fill:#FFFFFF; fill-opacity:1.0000; stroke:none;">
<circle cx="118.9243" cy="80.9779" r="0.4000" /> 
</g>
<g style="fill:#FFFFFF; fill-opacity:1.0000; stroke:none;">
<circle cx="108.7643" cy="80.9779" r="0.4000" /> 
</g>
<g style="fill:#FFFFFF; fill-opacity:1.0000; stroke:none;">
<circle cx="106.2243" cy="80.9779" r="0.4000" /> 
</g>
<g style="fill:#FFFFFF; fill-opacity:1.0000; stroke:none;">
<circle cx="111.3043" cy="80.9779" r="0.4000" /> 
</g> 
</svg>
